<svg width="188" height="188" xmlns="http://www.w3.org/2000/svg" xmlns:xlink="http://www.w3.org/1999/xlink" xml:space="preserve" overflow="hidden"><g transform="translate(-640 -376)"><path d="M661.542 499.375 661.542 544.417 706.583 544.417 706.583 499.375ZM675.25 513.083 667.417 513.083 667.417 505.25 675.25 505.25Z" fill="#104862"/><path d="M712.458 499.375 712.458 544.417 757.5 544.417 757.5 499.375ZM726.167 513.083 718.333 513.083 718.333 505.25 726.167 505.25Z" fill="#104862"/><path d="M687 448.458 687 493.5 732.042 493.5 732.042 448.458ZM700.708 462.167 692.875 462.167 692.875 454.333 700.708 454.333Z" fill="#104862"/><path d="M737.917 448.458 737.917 493.5 782.958 493.5 782.958 448.458ZM751.625 462.167 743.792 462.167 743.792 454.333 751.625 454.333Z" fill="#104862"/><path d="M712.458 397.542 712.458 442.583 757.5 442.583 757.5 397.542ZM726.167 411.25 718.333 411.25 718.333 403.417 726.167 403.417Z" fill="#104862"/><path d="M763.375 499.375 763.375 544.417 806.458 544.417 806.458 499.375ZM777.083 513.083 769.25 513.083 769.25 505.25 777.083 505.25Z" fill="#104862"/></g></svg>